<svg width="192" height="32" viewBox="0 0 192 32" fill="none" xmlns="http://www.w3.org/2000/svg">
<path d="M19.248 28H14.8535L6.29883 13.9668V28H1.9043V6.67188H6.29883L14.8682 20.7344V6.67188H19.248V28ZM30.1025 28.293C27.7783 28.293 25.8838 27.5801 24.4189 26.1543C22.9639 24.7285 22.2363 22.8291 22.2363 20.4561V20.0459C22.2363 18.4541 22.5439 17.0332 23.1592 15.7832C23.7744 14.5234 24.6436 13.5566 25.7666 12.8828C26.8994 12.1992 28.1885 11.8574 29.6338 11.8574C31.8018 11.8574 33.5059 12.541 34.7461 13.9082C35.9961 15.2754 36.6211 17.2139 36.6211 19.7236V21.4521H26.5283C26.665 22.4873 27.0752 23.3174 27.7588 23.9424C28.4521 24.5674 29.3262 24.8799 30.3809 24.8799C32.0117 24.8799 33.2861 24.2891 34.2041 23.1074L36.2842 25.4365C35.6494 26.335 34.79 27.0381 33.7061 27.5459C32.6221 28.0439 31.4209 28.293 30.1025 28.293ZM29.6191 15.2852C28.7793 15.2852 28.0957 15.5684 27.5684 16.1348C27.0508 16.7012 26.7188 17.5117 26.5723 18.5664H32.4609V18.2295C32.4414 17.292 32.1875 16.5693 31.6992 16.0615C31.2109 15.5439 30.5176 15.2852 29.6191 15.2852ZM46.333 28.293C44.0088 28.293 42.1143 27.5801 40.6494 26.1543C39.1943 24.7285 38.4668 22.8291 38.4668 20.4561V20.0459C38.4668 18.4541 38.7744 17.0332 39.3896 15.7832C40.0049 14.5234 40.874 13.5566 41.9971 12.8828C43.1299 12.1992 44.4189 11.8574 45.8643 11.8574C48.0322 11.8574 49.7363 12.541 50.9766 13.9082C52.2266 15.2754 52.8516 17.2139 52.8516 19.7236V21.4521H42.7588C42.8955 22.4873 43.3057 23.3174 43.9893 23.9424C44.6826 24.5674 45.5566 24.8799 46.6113 24.8799C48.2422 24.8799 49.5166 24.2891 50.4346 23.1074L52.5146 25.4365C51.8799 26.335 51.0205 27.0381 49.9365 27.5459C48.8525 28.0439 47.6514 28.293 46.333 28.293ZM45.8496 15.2852C45.0098 15.2852 44.3262 15.5684 43.7988 16.1348C43.2812 16.7012 42.9492 17.5117 42.8027 18.5664H48.6914V18.2295C48.6719 17.292 48.418 16.5693 47.9297 16.0615C47.4414 15.5439 46.748 15.2852 45.8496 15.2852ZM54.6094 19.958C54.6094 17.4873 55.1611 15.5195 56.2646 14.0547C57.3779 12.5898 58.8965 11.8574 60.8203 11.8574C62.3633 11.8574 63.6377 12.4336 64.6436 13.5859V5.5H68.8916V28H65.0684L64.8633 26.3154C63.8086 27.6338 62.4512 28.293 60.791 28.293C58.9258 28.293 57.4268 27.5605 56.2939 26.0957C55.1709 24.6211 54.6094 22.5752 54.6094 19.958ZM58.8428 20.2656C58.8428 21.75 59.1016 22.8877 59.6191 23.6787C60.1367 24.4697 60.8887 24.8652 61.875 24.8652C63.1836 24.8652 64.1064 24.3135 64.6436 23.21V16.9551C64.1162 15.8516 63.2031 15.2998 61.9043 15.2998C59.8633 15.2998 58.8428 16.9551 58.8428 20.2656ZM80.8008 28V15.2559H78.4424V12.1504H80.8008V10.8027C80.8008 9.02539 81.3086 7.64844 82.3242 6.67188C83.3496 5.68555 84.7803 5.19238 86.6162 5.19238C87.2021 5.19238 87.9199 5.29004 88.7695 5.48535L88.7256 8.7666C88.374 8.67871 87.9443 8.63477 87.4365 8.63477C85.8447 8.63477 85.0488 9.38184 85.0488 10.876V12.1504H88.1982V15.2559H85.0488V28H80.8008ZM89.7363 19.9287C89.7363 18.3564 90.0391 16.9551 90.6445 15.7246C91.25 14.4941 92.1191 13.542 93.252 12.8682C94.3945 12.1943 95.7178 11.8574 97.2217 11.8574C99.3604 11.8574 101.104 12.5117 102.451 13.8203C103.809 15.1289 104.565 16.9062 104.722 19.1523L104.751 20.2363C104.751 22.668 104.072 24.6211 102.715 26.0957C101.357 27.5605 99.5361 28.293 97.251 28.293C94.9658 28.293 93.1396 27.5605 91.7725 26.0957C90.415 24.6309 89.7363 22.6387 89.7363 20.1191V19.9287ZM93.9697 20.2363C93.9697 21.7402 94.2529 22.8926 94.8193 23.6934C95.3857 24.4844 96.1963 24.8799 97.251 24.8799C98.2764 24.8799 99.0771 24.4893 99.6533 23.708C100.229 22.917 100.518 21.6572 100.518 19.9287C100.518 18.4541 100.229 17.3115 99.6533 16.501C99.0771 15.6904 98.2666 15.2852 97.2217 15.2852C96.1865 15.2852 95.3857 15.6904 94.8193 16.501C94.2529 17.3018 93.9697 18.5469 93.9697 20.2363ZM116.265 16.1201C115.688 16.042 115.181 16.0029 114.741 16.0029C113.14 16.0029 112.09 16.5449 111.592 17.6289V28H107.358V12.1504H111.357L111.475 14.04C112.324 12.585 113.501 11.8574 115.005 11.8574C115.474 11.8574 115.913 11.9209 116.323 12.0479L116.265 16.1201ZM125.127 19.958C125.127 17.4873 125.679 15.5195 126.782 14.0547C127.896 12.5898 129.414 11.8574 131.338 11.8574C132.881 11.8574 134.155 12.4336 135.161 13.5859V5.5H139.409V28H135.586L135.381 26.3154C134.326 27.6338 132.969 28.293 131.309 28.293C129.443 28.293 127.944 27.5605 126.812 26.0957C125.688 24.6211 125.127 22.5752 125.127 19.958ZM129.36 20.2656C129.36 21.75 129.619 22.8877 130.137 23.6787C130.654 24.4697 131.406 24.8652 132.393 24.8652C133.701 24.8652 134.624 24.3135 135.161 23.21V16.9551C134.634 15.8516 133.721 15.2998 132.422 15.2998C130.381 15.2998 129.36 16.9551 129.36 20.2656ZM151.597 16.1201C151.021 16.042 150.513 16.0029 150.073 16.0029C148.472 16.0029 147.422 16.5449 146.924 17.6289V28H142.69V12.1504H146.689L146.807 14.04C147.656 12.585 148.833 11.8574 150.337 11.8574C150.806 11.8574 151.245 11.9209 151.655 12.0479L151.597 16.1201ZM158.115 28H153.867V12.1504H158.115V28ZM153.618 8.04883C153.618 7.41406 153.828 6.8916 154.248 6.48145C154.678 6.07129 155.259 5.86621 155.991 5.86621C156.714 5.86621 157.29 6.07129 157.72 6.48145C158.149 6.8916 158.364 7.41406 158.364 8.04883C158.364 8.69336 158.145 9.2207 157.705 9.63086C157.275 10.041 156.704 10.2461 155.991 10.2461C155.278 10.2461 154.702 10.041 154.263 9.63086C153.833 9.2207 153.618 8.69336 153.618 8.04883ZM167.549 22.8291L170.493 12.1504H174.917L169.57 28H165.527L160.181 12.1504H164.604L167.549 22.8291ZM183.882 28.293C181.558 28.293 179.663 27.5801 178.198 26.1543C176.743 24.7285 176.016 22.8291 176.016 20.4561V20.0459C176.016 18.4541 176.323 17.0332 176.938 15.7832C177.554 14.5234 178.423 13.5566 179.546 12.8828C180.679 12.1992 181.968 11.8574 183.413 11.8574C185.581 11.8574 187.285 12.541 188.525 13.9082C189.775 15.2754 190.4 17.2139 190.4 19.7236V21.4521H180.308C180.444 22.4873 180.854 23.3174 181.538 23.9424C182.231 24.5674 183.105 24.8799 184.16 24.8799C185.791 24.8799 187.065 24.2891 187.983 23.1074L190.063 25.4365C189.429 26.335 188.569 27.0381 187.485 27.5459C186.401 28.0439 185.2 28.293 183.882 28.293ZM183.398 15.2852C182.559 15.2852 181.875 15.5684 181.348 16.1348C180.83 16.7012 180.498 17.5117 180.352 18.5664H186.24V18.2295C186.221 17.292 185.967 16.5693 185.479 16.0615C184.99 15.5439 184.297 15.2852 183.398 15.2852Z" fill="#0EC261"/>
</svg>
